HIERARCHY
ROOT Hips
{
	OFFSET 0.00000 0.00000 0.00000
	CHANNELS 6 Xposition Yposition Zposition Zrotation Yrotation Xrotation 
	JOINT LHipJoint
	{
		OFFSET 0 0 0
		CHANNELS 3 Zrotation Yrotation Xrotation
		JOINT LeftHip
		{
			OFFSET 1.62964 -1.40469 0.78906
			CHANNELS 3 Zrotation Yrotation Xrotation
			JOINT LeftKnee
			{
				OFFSET 2.29640 -6.30932 0.00000
				CHANNELS 3 Zrotation Yrotation Xrotation
				JOINT LeftAnkle
				{
					OFFSET 2.29451 -6.30412 0.00000
					CHANNELS 3 Zrotation Yrotation Xrotation
					JOINT LeftToe
					{
						OFFSET 0.03611 -0.09921 1.56387
						CHANNELS 3 Zrotation Yrotation Xrotation
						End Site
						{
							OFFSET 0.00000 -0.00000 0.80291
						}
					}
				}
			}
		}
	}
	JOINT RHipJoint
	{
		OFFSET 0 0 0
		CHANNELS 3 Zrotation Yrotation Xrotation
		JOINT RightHip
		{
			OFFSET -1.73712 -1.40469 0.78906
			CHANNELS 3 Zrotation Yrotation Xrotation
			JOINT RightKnee
			{
				OFFSET -2.28137 -6.26801 0.00000
				CHANNELS 3 Zrotation Yrotation Xrotation
				JOINT RightAnkle
				{
					OFFSET -2.28681 -6.28298 0.00000
					CHANNELS 3 Zrotation Yrotation Xrotation
					JOINT RightToe
					{
						OFFSET -0.15927 -0.43759 1.61103
						CHANNELS 3 Zrotation Yrotation Xrotation
						End Site
						{
							OFFSET -0.00000 -0.00000 0.84630
						}
					}
				}
			}
		}
	}
	JOINT lowerback
	{
		OFFSET 0 0 0
		CHANNELS 3 Zrotation Yrotation Xrotation
		JOINT Chest
		{
			OFFSET -0.04227 2.04338 -0.00225
			CHANNELS 3 Zrotation Yrotation Xrotation
			JOINT Chest2
			{
				OFFSET -0.02148 2.04482 -0.04273
				CHANNELS 3 Zrotation Yrotation Xrotation
				JOINT lowerneck
				{
					OFFSET 0 0 0
					CHANNELS 3 Zrotation Yrotation Xrotation
					JOINT Neck
					{
						OFFSET 0.09180 1.44629 0.19359
						CHANNELS 3 Zrotation Yrotation Xrotation
						JOINT Head
						{
							OFFSET 0.00887 1.40645 0.14750
							CHANNELS 3 Zrotation Yrotation Xrotation
							End Site
							{
								OFFSET -0.00669 1.50671 0.03707
							}
						}
					}
				}
				JOINT LeftCollar
				{
					OFFSET 0 0 0
					CHANNELS 3 Zrotation Yrotation Xrotation
					JOINT LeftShoulder
					{
						OFFSET 2.17674 1.86763 -0.06520
CHANNELS 3 Zrotation Xrotation Yrotation
						JOINT LeftElbow
						{
OFFSET 0 -4.657760 0.000000
CHANNELS 3 Zrotation Xrotation Yrotation
							JOINT LeftWrist
							{
OFFSET 0 -3.555390 0.000000
CHANNELS 3 Zrotation Xrotation Yrotation
								JOINT lhand
								{
									OFFSET 0 0 0
CHANNELS 3 Zrotation Xrotation Yrotation
									JOINT LFingers
									{
OFFSET 0 -0.707260 0.000000
CHANNELS 3 Zrotation Xrotation Yrotation
										End Site
										{
OFFSET 0 -0.570220 0.000000
										}
									}
								}
								JOINT LThumb
								{
OFFSET 0 0.000000 0.000000
CHANNELS 3 Zrotation Xrotation Yrotation
									End Site
									{
OFFSET 0 -0.578920 0.578920
									}
								}
							}
						}
					}
				}
				JOINT RightCollar
				{
					OFFSET 0 0 0
					CHANNELS 3 Zrotation Yrotation Xrotation
					JOINT RightShoulder
					{
						OFFSET -2.80694 1.55459 -0.32496
CHANNELS 3 Zrotation Xrotation Yrotation
						JOINT RightElbow
						{
OFFSET 0 -4.719250 -0.000000
CHANNELS 3 Zrotation Xrotation Yrotation
							JOINT RightWrist
							{
OFFSET 0 -3.569900 0.000000
CHANNELS 3 Zrotation Xrotation Yrotation
								JOINT rhand
								{
									OFFSET 0 0 0
CHANNELS 3 Zrotation Xrotation Yrotation
									JOINT RFingers
									{
OFFSET 0 -0.507760 0.000000
CHANNELS 3 Zrotation Xrotation Yrotation
										End Site
										{
OFFSET 0 -0.409370 0.000000
										}
									}
								}
								JOINT RThumb
								{
OFFSET 0 0.000000 0.000000
CHANNELS 3 Zrotation Xrotation Yrotation
									End Site
									{
OFFSET 0 -0.415620 0.415620
									}
								}
							}
						}
					}
				}
			}
		}
	}
}
MOTION
Frames: 10
Frame Time: 0.008333333333333333
-1.026888 15.849062 -7.279230 178.987948 3.449126 -160.060848 0.000000 0.000000 0.000000 -8.869688 -25.311240 -33.995369 0.814811 5.759779 16.089145 0.009542 -1.318299 2.796486 3.923931 -12.058503 -35.939383 0.000000 0.000000 0.000000 21.663397 13.291135 -11.448163 -0.974963 -6.285761 17.615790 -1.868923 1.788872 -25.363836 -2.736105 10.252199 -29.800017 -6.400390 -2.905145 -28.266948 -0.542088 -1.231316 0.906455 2.459605 -0.892933 16.252529 -3.514111 1.454444 9.316663 10.817118 2.278358 8.740118 4.154582 1.544722 1.009638 0.000000 0.000000 0.000000 4.851938 -0.684371 -7.230485 6.221174 -10.630589 0.579387 19.440689 15.111682 8.768579 0.000000 0.000000 0.000000 -7.125000 0.000000 0.000000 -5.367094 20.708531 -3.136122 0.000000 0.000000 0.000000 -0.773467 7.026740 9.157905 -24.031506 -35.196549 -7.725176 -12.757627 1.902578 50.702548 0.000000 0.000000 0.000000 7.125000 0.000000 0.000000 58.011683 75.176401 -44.289528
-1.057580 15.852459 -7.437104 178.926119 3.518811 -159.981267 0.000000 0.000000 0.000000 -9.415800 -25.225160 -33.793625 0.882091 5.986821 16.746227 -0.005319 -1.970232 2.297515 3.896225 -12.020971 -35.806194 0.000000 0.000000 0.000000 21.513864 13.081075 -11.403482 -1.015485 -6.410586 17.980653 -1.782649 1.281794 -24.889858 -3.192808 11.000585 -32.282061 -6.430789 -2.965163 -28.465275 -0.667528 -1.246103 0.853083 2.329804 -0.887331 16.282637 -3.471584 1.427570 9.582214 11.040298 2.258115 8.448327 4.219641 1.522524 0.866589 0.000000 0.000000 0.000000 5.049838 -0.918728 -7.931491 6.344585 -10.835604 0.602369 19.447430 14.657301 8.015080 0.000000 0.000000 0.000000 -7.125000 0.000000 0.000000 -5.362751 21.501360 -3.037074 0.000000 0.000000 0.000000 -0.467688 7.158655 8.326510 -23.031418 -34.121217 -7.156769 -13.172676 2.782187 51.138877 0.000000 0.000000 0.000000 7.125000 0.000000 0.000000 59.281477 75.520204 -45.749610
-1.086486 15.864684 -7.588517 178.798720 3.657830 -159.863628 0.000000 0.000000 0.000000 -10.014460 -25.033518 -33.580693 0.936676 6.164830 17.263340 -0.018686 -2.566707 1.833101 3.945510 -12.087518 -36.042315 0.000000 0.000000 0.000000 21.245251 12.905891 -11.876871 -1.218610 -7.001684 19.720501 -1.801755 1.601745 -24.939934 -2.933434 10.585680 -30.895841 -6.567443 -3.010937 -28.594433 -0.781495 -1.205474 0.684488 2.296543 -0.854998 16.138642 -3.447930 1.394740 9.932847 11.208443 2.234033 8.167773 4.268690 1.496648 0.713376 0.000000 0.000000 0.000000 5.244710 -1.122920 -8.499300 6.354978 -10.852852 0.604328 19.737914 14.239440 8.310819 0.000000 0.000000 0.000000 -7.125000 0.000000 0.000000 -5.152101 21.173212 -2.955119 0.000000 0.000000 0.000000 -0.239194 7.568915 7.466265 -22.047730 -33.030695 -6.611982 -12.895663 3.318964 52.041935 0.000000 0.000000 0.000000 7.125000 0.000000 0.000000 62.759268 75.760982 -49.074990
-1.114317 15.882814 -7.728695 178.475497 4.046032 -159.760907 0.000000 0.000000 0.000000 -10.903236 -24.627688 -33.166108 0.953142 6.217161 17.415913 -0.027439 -2.957271 1.402756 3.946949 -12.089443 -36.049049 0.000000 0.000000 0.000000 20.642793 13.335401 -12.576788 -1.466069 -7.648245 21.652536 -1.816243 1.398189 -25.096851 -3.228319 11.055712 -32.468093 -6.975296 -3.062022 -28.631400 -0.932438 -1.084207 0.583470 2.402700 -0.811771 16.025971 -3.749720 1.456169 9.584129 11.913458 2.282873 8.136486 4.588817 1.528062 0.745906 0.000000 0.000000 0.000000 5.308802 -1.289825 -8.724377 6.609594 -11.274910 0.653191 19.506848 14.224400 8.101399 0.000000 0.000000 0.000000 -7.125000 0.000000 0.000000 -5.319602 21.407127 -3.023605 0.000000 0.000000 0.000000 -0.023142 7.649020 6.308834 -20.856090 -31.656044 -5.976032 -12.447856 3.970536 52.288925 0.000000 0.000000 0.000000 7.125000 0.000000 0.000000 63.919281 75.673992 -50.022751
-1.140682 15.906434 -7.870249 178.604706 4.406827 -159.547561 0.000000 0.000000 0.000000 -11.260846 -23.838578 -32.893954 0.955736 6.225463 17.439965 -0.035149 -3.323640 1.145434 3.687709 -11.731806 -34.790902 0.000000 0.000000 0.000000 20.539582 13.321366 -13.585862 -1.777514 -8.383132 23.885921 -1.779720 1.444925 -24.823928 -3.434397 11.365319 -33.524329 -6.969316 -3.004098 -28.873608 -0.929020 -0.980408 0.544413 2.441791 -0.762492 16.085615 -3.901939 1.139693 9.325202 12.074159 1.806886 8.073086 4.555711 1.282482 0.771791 0.000000 0.000000 0.000000 5.380190 -1.812468 -9.158324 6.692697 -11.412413 0.669522 19.253442 13.966776 7.683418 0.000000 0.000000 0.000000 -7.125000 0.000000 0.000000 -5.505287 21.860873 -3.073360 0.000000 0.000000 0.000000 0.289593 7.965127 5.291500 -20.166833 -30.840609 -5.617727 -12.121639 4.687414 52.671515 0.000000 0.000000 0.000000 7.125000 0.000000 0.000000 65.501677 75.670622 -51.453069
-1.168801 15.927531 -7.998370 178.631499 4.933434 -159.202381 0.000000 0.000000 0.000000 -11.653453 -23.102076 -32.632054 0.911406 6.083184 17.026024 -0.039088 -3.509696 1.094175 3.645156 -11.672402 -34.582896 0.000000 0.000000 0.000000 20.152964 13.167095 -15.149481 -2.152903 -9.175990 26.348476 -1.690615 1.768880 -24.093596 -3.652599 11.683086 -34.620041 -7.010507 -2.904218 -29.096689 -0.991047 -0.784033 0.391636 2.474994 -0.659726 15.990458 -3.979677 1.301276 9.723223 12.704754 2.021758 7.616889 4.445341 1.368230 0.459519 0.000000 0.000000 0.000000 5.495885 -2.152218 -10.377353 6.910928 -11.772537 0.713406 19.648514 12.294035 8.715209 0.000000 0.000000 0.000000 -7.125000 0.000000 0.000000 -5.217988 20.751707 -3.042344 0.000000 0.000000 0.000000 0.538326 7.639286 3.465420 -18.686750 -29.025839 -4.878721 -10.063317 5.066487 54.024106 0.000000 0.000000 0.000000 7.125000 0.000000 0.000000 71.423912 75.263576 -56.453805
-1.196587 15.957234 -8.121282 178.242723 5.625688 -159.065679 0.000000 0.000000 0.000000 -12.627749 -22.492808 -31.932403 0.837557 5.837448 16.313725 -0.038016 -3.463040 1.015882 3.433886 -11.363731 -33.519753 0.000000 0.000000 0.000000 19.237543 13.158121 -16.788381 -2.646593 -10.092730 29.283831 -1.593058 2.395514 -23.217796 -3.424520 11.349715 -33.471858 -7.482031 -2.914899 -29.086985 -1.137990 -0.591163 0.268941 2.649194 -0.586350 15.820869 -3.856166 1.331501 10.166039 12.480001 2.108613 6.564838 4.550320 1.334981 0.106808 0.000000 0.000000 0.000000 5.701934 -2.282024 -12.420624 7.201254 -12.249892 0.773902 19.255803 10.730518 7.570074 0.000000 0.000000 0.000000 -7.125000 0.000000 0.000000 -5.504321 21.980032 -3.057832 0.000000 0.000000 0.000000 0.645662 7.961934 2.769838 -17.921545 -28.056362 -4.512393 -10.258429 6.047481 53.159452 0.000000 0.000000 0.000000 7.125000 0.000000 0.000000 68.157963 75.107212 -53.261950
-1.224900 15.977652 -8.240346 178.261950 6.144427 -158.770716 0.000000 0.000000 0.000000 -13.102792 -21.704939 -31.452811 0.763460 5.579588 15.569387 -0.042563 -3.668520 1.031017 3.304075 -11.171741 -32.861263 0.000000 0.000000 0.000000 18.829520 13.341286 -18.668256 -3.242975 -11.076378 32.540155 -1.475565 3.072746 -22.171196 -2.993252 10.683111 -31.219416 -7.471774 -2.918584 -29.218729 -1.183100 -0.564588 0.141040 2.605081 -0.557144 15.727916 -3.910309 1.362968 10.207901 12.852583 2.139874 6.064478 4.455273 1.318213 -0.086813 0.000000 0.000000 0.000000 5.920691 -2.304958 -14.302226 7.620792 -12.936271 0.865364 19.722815 8.501531 7.841252 0.000000 0.000000 0.000000 -7.125000 0.000000 0.000000 -5.163349 21.669416 -2.903368 0.000000 0.000000 0.000000 0.763681 8.174430 2.360399 -17.271325 -27.213498 -4.210924 -10.851881 7.245175 52.610806 0.000000 0.000000 0.000000 7.125000 0.000000 0.000000 65.883095 75.171566 -51.250765
-1.253428 15.996216 -8.348164 178.139249 6.728528 -158.587952 0.000000 0.000000 0.000000 -13.649715 -21.137091 -30.976241 0.705968 5.369931 14.966873 -0.042712 -3.686186 0.917315 3.142722 -10.921204 -32.016001 0.000000 0.000000 0.000000 18.279690 13.077742 -20.457245 -3.794559 -11.878862 35.308686 -1.323609 3.326969 -20.907584 -2.614343 10.040421 -29.110015 -7.591551 -2.952774 -29.149128 -1.263875 -0.553985 0.063499 2.587441 -0.547384 15.601314 -4.141441 1.360232 9.767224 13.057775 2.090992 5.735746 4.557702 1.270637 -0.116639 0.000000 0.000000 0.000000 6.171476 -2.495203 -15.647707 8.018509 -13.582734 0.956641 20.066300 6.837492 8.262876 0.000000 0.000000 0.000000 -7.125000 0.000000 0.000000 -4.914582 21.204516 -2.814123 0.000000 0.000000 0.000000 0.827085 8.160983 2.158570 -16.593956 -26.318991 -3.905797 -11.528801 8.461164 51.723518 0.000000 0.000000 0.000000 7.125000 0.000000 0.000000 62.360987 75.112300 -48.042879
-1.283250 16.008666 -8.453422 177.877805 7.482431 -158.296476 0.000000 0.000000 0.000000 -14.368737 -20.477870 -30.531443 0.626254 5.062924 14.088299 -0.039446 -3.534907 0.953523 2.687935 -10.168048 -29.526115 0.000000 0.000000 0.000000 17.500005 12.997998 -22.549792 -4.430130 -12.707934 38.290941 -1.139740 2.632492 -19.471333 -2.487765 9.815462 -28.381360 -7.799161 -3.003719 -29.304249 -1.385568 -0.497830 0.024767 2.587153 -0.525158 15.621091 -4.283107 1.441925 9.224037 13.186105 2.166465 5.412001 4.617797 1.290185 -0.136136 0.000000 0.000000 0.000000 6.344129 -2.516088 -17.068351 8.674912 -14.640303 1.117027 20.088746 4.936373 8.187913 0.000000 0.000000 0.000000 -7.125000 0.000000 0.000000 -4.898143 21.282472 -2.796104 0.000000 0.000000 0.000000 0.891538 8.160270 1.997481 -16.137984 -25.706928 -3.705852 -11.207705 8.976267 49.278755 0.000000 0.000000 0.000000 7.125000 0.000000 0.000000 54.481189 73.915429 -40.009047
